<?xml version="1.0" encoding="UTF-8"?>
<svg id="Calque_1" xmlns="http://www.w3.org/2000/svg" version="1.1" viewBox="0 0 3013 1574">
  <!-- Generator: Adobe Illustrator 30.0.0, SVG Export Plug-In . SVG Version: 2.1.1 Build 123)  -->
  <defs>
    <style>
      .st0 {
        fill: #1d2e56;
      }

      .st1 {
        fill: #2283c1;
      }

      .st2 {
        fill: #cc5917;
      }

      .st3 {
        fill: #fff;
      }

      .st4 {
        fill: #9b1c21;
      }
    </style>
  </defs>
  <ellipse class="st3" cx="802.55" cy="793.56" rx="764.18" ry="772.58"/>
  <path class="st1" d="M777.15,1.16c-48.9,2.1-91.5,7-133.5,15.4-193.6,38.7-365.7,146.7-483.5,303.5-42.2,56.1-77.2,118.9-103,184.5-24.9,63.4-42.1,134-48.9,201-3.1,30.6-3.9,47.7-3.9,82,0,36.1.9,53.3,4.4,85.5,33,303.4,243.4,561.3,537.9,659.5,61.1,20.3,126.7,33.5,195.5,39.2,21.2,1.7,102.5,1.7,123,0,110.5-9.4,207.1-36,300.9-82.9,188.2-94.1,330.6-256.8,396.8-453.3,57.1-169.5,53.7-356.3-9.5-523.1-49.6-130.7-134.1-246.5-244.2-334.8C1180.05,74.06,1025.15,14.06,857.55,2.56c-15.8-1.1-67.3-2-80.4-1.4ZM851.15,77.66c162.9,11.1,315.6,74.7,436.5,181.8,13.2,11.6,44.9,43.2,57.4,57.1,141.5,157.1,204.9,367.3,174,576.5-17.4,117.9-65.4,230.3-139.1,326.2-102.6,133.5-251.7,228.2-416.6,264.7-53.5,11.9-92.7,16.4-149.2,17.3-39.3.6-61.3-.3-93-3.8-131.5-14.3-255.7-63.2-360.5-142C160.75,1205.16,54.55,964.06,79.65,717.56c11.7-113.9,50.5-222.3,113.7-317.8,67.8-102.3,160.2-185,270.8-242.3,117.7-61,253.2-88.9,387-79.8Z"/>
  <path class="st0" d="M875.65,285.46l-11.5.6,13,1.3c98.9,9.8,181.2,38.3,259,89.7,30.2,19.9,52.2,38.1,81.1,66.9,41,41.1,66.7,75.7,91.9,123.9,8.3,15.9,17.8,36.6,19.6,42.7l1.2,4h59.8l-.7-2.3c-3.5-11.1-21.1-47.1-32.1-65.7-14.9-24.9-35.3-53.2-54-74.8-12.3-14.2-38.9-40.8-53.9-53.8-39.2-34.3-81.4-61.3-129.5-83-52.9-23.8-114.5-40.3-174.4-46.9-21.2-2.3-51.7-3.5-69.5-2.6Z"/>
  <path class="st1" d="M794.65,340.06c-2,2.5-.8,5,2.5,5,2.1,0,3.1-.5,3.3-1.8.4-2.1-1.4-4.7-3.3-4.7-.7,0-1.8.7-2.5,1.5Z"/>
  <path class="st1" d="M839.85,341.46c-.8.4-1.2,1.9-1,3.2.2,1.9.9,2.4,3.3,2.4,3.6,0,4.7-3.1,1.9-5.2-2.1-1.5-2.4-1.6-4.2-.4Z"/>
  <path class="st1" d="M731.15,344.76c-1.3,3.1-1.2,3.3.6,3.6,3.2.5,4.6-.4,5.7-3.7,1.1-3,1-3.1-1.9-3.1-2.4,0-3.3.6-4.4,3.2Z"/>
  <path class="st1" d="M755.65,350.36c-2.7,1.3-3.6,2.4-3.8,4.8-.4,3.9,1.1,5.1,7.8,6.4,6.1,1.2,6.5,1.4,5.7,3.5-.7,1.7-5.2,2.1-6.2.5s-7.5-1.2-7.5.4c0,4.2,11,6.2,16.9,3.1,5.9-3,4.2-9.9-2.6-11-10.3-1.7-10.8-4.9-.6-3.9,6.4.7,6.5.7,5.4-1.4-1-1.9-6.5-4.2-10.1-4.2-.8,0-3.1.8-5,1.8Z"/>
  <path class="st1" d="M793.65,359.06v10.5h7v-21h-7v10.5Z"/>
  <path class="st1" d="M814.15,349.96c-4,1.7-5.5,3.7-6.2,8-1.2,7.4,3.6,12.6,11.6,12.6,5.3,0,6.9-.7,8.6-4.1,2-3.8,2-3.9-1.6-3.9-2,0-3.7.8-4.9,2.2-1.7,2.1-1.8,2.1-4.4.5-1.9-1.3-2.6-2.6-2.6-5.1,0-5.6,5.7-8.9,8-4.6,1.1,2.1,7,2.9,7,.9,0-2.4-2.4-5.2-5.5-6.5-4.2-1.7-6.1-1.7-10,0Z"/>
  <path class="st1" d="M838.35,351.26c-.2.4-.8,4.4-1.1,8.8-.4,4.4-.9,8.7-1.2,9.6-.3,1.2.4,1.8,2.8,2.2,1.8.2,3.4.3,3.6.2.5-.4,2.4-19.6,2-20-.9-.9-5.6-1.6-6.1-.8Z"/>
  <path class="st1" d="M727.75,352.96c-4.6,2.6-6.5,9.5-4,15,1.7,3.7,7.1,5.9,12.1,5.1,3.9-.7,8.8-4.3,8.8-6.5,0-1.6-5.6-1.2-7,.5-1.7,2.1-5.7,1.9-6.9-.4-1.3-2.3.8-3.1,8.6-3.1,2.8,0,5.4-.4,5.8-1,.9-1.5-2.1-7.6-4.6-9.4-2.8-1.9-9.5-2-12.8-.2ZM736.65,357.06c1.7,2.1.3,3.5-3.6,3.5-3.5,0-4.4-1.6-2.2-3.8,1.6-1.6,4.3-1.5,5.8.3Z"/>
  <path class="st1" d="M914.15,354.96c-2.1,7-2.5,11-1.3,11.8,2.7,1.7,4.2.2,5.4-5.2.7-3,1.3-5.8,1.4-6.1,0-1.2-5.2-1.7-5.5-.5Z"/>
  <path class="st1" d="M702.65,355.26c-.8.3-2.1,1.1-2.8,1.6-.8.6-3.1,1-5.2.8-2.1-.1-4.9.3-6.2,1s-3.8,1.2-5.5,1c-3.1-.2-3.3-.1-2.7,2.6.3,1.5,1.1,6.2,1.8,10.3,1.2,7.3,1.3,7.5,4,7.3,1.6-.1,3.1-.4,3.4-.7s0-3.6-.6-7.3c-1.2-7.4-.5-9.6,3.2-9.1,1.8.3,2.3,1.5,3.5,7.5l1.4,7.3h6.7l-.7-4.3c-1.3-7.4-1-11.9,1-13.1,2.5-1.5,4.3,1.1,5.1,7.7.4,2.9,1.1,5.8,1.5,6.6,1.2,1.9,6.1.6,6.1-1.6,0-4.8-2.4-14.3-4-15.8-1.9-1.7-7.6-2.8-10-1.8Z"/>
  <path class="st1" d="M884.65,360.36c-7.8,7.8-2.6,19.2,8.8,19.2,4,0,8.2-2.8,8.2-5.4,0-1.9-6-2.7-6.7-.9-.6,1.6-4.5,1.7-6.1.1-2.9-2.9-.1-10.8,3.8-10.8,1,0,2.5.9,3.3,2,1.5,2.2,7.7,3.9,7.7,2.2,0-2.7-2.6-6.2-5.5-7.7-5.3-2.4-10.2-2-13.5,1.3Z"/>
  <path class="st1" d="M667.85,362.76c-.7.7-2.9,1.3-4.8,1.5-2,.1-3.8.4-4,.6s.8,4.9,2.2,10.3q2.6,10,5.5,9.6c3.3-.5,3.5-1.4,1.5-9-1.7-6.4-1.4-7.6,2.5-9.3,2-.8,2.8-1.7,2.5-2.6-.4-.8-.6-1.7-.6-1.9,0-.9-3.7-.3-4.8.8Z"/>
  <path class="st1" d="M851.25,368.36c-.9,2.7.2,4.9,2.7,5.6,2.1.6,2.1.7-.8,2.4l-3,1.7,2.8.3c4.3.5,5.8-1.4,5.5-6.7-.3-4.4-.5-4.6-3.5-4.9-2.4-.2-3.3.1-3.7,1.6Z"/>
  <path class="st1" d="M927.85,367.86c-3.1,1.8-6.2,7.1-6.2,10.6,0,7,9.5,12.6,16.3,9.7,1.9-.8,3.8-1.9,4.1-2.5,1-1.5-5.4-3-8.1-1.8s-5.3-.5-5.3-3.4c0-1.1.1-1.9.3-1.9.1,0,3.4.9,7.4,1.9s7.4,1.6,7.7,1.3c.4-.3.6-2.2.6-4.2,0-4.8-3-8.6-7.8-10-4.7-1.3-6.2-1.2-9,.3ZM937.45,372.76c2.6,2.6,1.4,4.1-2.5,3.3-4.7-.8-4.9-1.1-3.3-3,1.5-1.8,4.1-2,5.8-.3Z"/>
  <path class="st1" d="M614.75,369.66c-2.9,1.8-3.3,2.4-2.9,5.6.3,2.8.1,3.7-1.4,4.1-1.4.3-1.5.8-.7,2.3.5,1.1,1.7,1.8,2.6,1.7,1.2-.2,2.2,1.7,4.1,7.2,1.4,4.1,2.6,7.6,2.7,7.8.1.1,1.6-.3,3.3-.9l3-1-2.4-7.2c-2.5-7.5-2.5-9.7.1-9.7,1.7,0,1.9-.9.6-2.9-.5-.8-1.8-1.2-3-.8-2.5.6-2.9-2-.5-3.7,1.6-1.3,1-4.6-1-4.6-.6,0-2.6.9-4.5,2.1Z"/>
  <path class="st1" d="M639.15,370.06c-5.9,2.1-7.8,4.9-7.2,10.8.7,8,6.2,11.8,14,9.6,4.2-1.1,8.7-6.1,8.7-9.5,0-4.7-2.7-9.4-6.4-10.9-4.2-1.8-4.1-1.8-9.1,0ZM645.65,375.56c1.2,1.2,2,3.3,2,5.5,0,2.8-.5,3.8-2.5,4.7-2.2,1-2.9.9-4.5-.8-3.1-3.1-3.5-6.9-1.1-9.3,2.6-2.6,3.6-2.6,6.1-.1Z"/>
  <path class="st1" d="M954.85,375.26c-1.7.7-3.3,4.9-2.6,6.8.3.8,2.8,2.8,5.6,4.5,2.7,1.7,4.8,3.6,4.5,4.3-.7,2.2-4.4,1.9-6.9-.6-1.2-1.3-3.3-2.7-4.6-3-2-.5-2.3-.2-2,2.1.6,5.5,12.3,10,17.3,6.8,4.8-3.2,3-8.1-4.7-12.9-1.6-1-2.8-2.2-2.8-2.7,0-1.7,3.9-1.1,5.8,1,1,1.1,2.9,2.1,4.3,2.2,1.9.2,2.3-.1,2.1-1.7-.5-2.8-2.2-4.6-5.9-6.2-3.3-1.3-7.7-1.6-10.1-.6Z"/>
  <path class="st1" d="M983.05,379.96c-.4,1.9-1.1,2.5-2.2,2.1-.8-.3-1.9,0-2.4.7-1.2,1.9-1,2.8.7,2.8,2,0,1.9.8-.6,6.8-2.6,6.2-2,9.6,2.1,11.7,3.9,2,4.7,1.9,5.3-.7.4-1.4,0-2.6-1.1-3.4-1.5-1.1-1.5-1.5.4-6.1,1.5-3.6,2.5-4.7,3.9-4.5,2.9.5,3.8-2,1.4-3.9-1.8-1.4-2-1.9-.9-3.8,1.4-2.7,1.3-2.9-2.8-3.7-2.8-.6-3.2-.3-3.8,2Z"/>
  <path class="st1" d="M1010.65,400.26c-5.6,11.8-6,12.8-4.4,14,1,.7,2.6,1.3,3.6,1.3s1.8.4,1.8,1c0,1.4,5.5,4,8.4,4,6.1,0,12.2-9.8,9.7-15.8-1.2-2.9-5.7-6.2-8.5-6.2-1.9,0-2-.7-.1-4,2-3.5,1.8-4.5-1-5.8-1.4-.7-2.8-1.2-2.9-1.2-.2,0-3.2,5.7-6.6,12.7ZM1021.75,403.56c4,2.2,1.2,11-3.5,11-5,0-5.9-5.7-1.6-10,2.3-2.3,2.5-2.3,5.1-1Z"/>
  <path class="st1" d="M577.85,391.26c-3.5,1.7-6.2,5.8-6.2,9.3,0,2.9,2.6,7.6,5.2,9.4,6,4.3,17.7-.4,17.8-7.1,0-2-.2-2-3-1-1.7.6-3.3,2-3.6,3-.4,1.3-1.4,1.7-3.7,1.5-5.2-.5-3.8-2.9,3.6-5.7,3.7-1.4,6.7-3,6.7-3.4,0-.5-1.5-2.4-3.4-4.3-3.9-3.9-8-4.4-13.4-1.7ZM585.65,396.06c1,1.2.5,1.7-2.5,3-4.6,1.9-4.5,1.9-4.5-.3,0-3.8,4.6-5.6,7-2.7Z"/>
  <path class="st1" d="M559.45,399.76c-1.2,1.2-2.9,2.3-3.8,2.3-.8.1-2.3.6-3.2,1.1-1.5.8-1.3,1.9,2.7,10.2,2.4,5,4.7,9.2,5,9.2.5,0,4.5-1.9,5.3-2.5.1-.1-1.1-3.2-2.8-6.8-3.2-7.2-3.2-8.9.6-10.6,2.1-.9,2.3-1.4,1.4-3.1-1.4-2.6-2.5-2.5-5.2.2Z"/>
  <path class="st1" d="M532.95,405.76c-2.1,1-2.1,1.2-.7,4,1.3,2.5,1.3,2.9-.1,3.4-2,.8-.3,3.9,2.2,3.9,1.1,0,2.8,1.9,4.6,5.2,3.2,6.1,5.9,7.2,11.2,5.1,3.3-1.3,3.4-1.5,2-3.5-1-1.4-2.2-1.9-3.4-1.6-1.6.4-2.5-.6-4.5-4.6-2.3-4.5-2.4-5.1-.9-5.9,2.5-1.4,1-4-2-3.5-1.9.4-2.7,0-3.2-1.6-.7-2.3-1.9-2.5-5.2-.9Z"/>
  <path class="st1" d="M504.75,407.46c-1.5,1-4.4,9.1-3.2,9.1,1.2-.1,3.7-2.5,4.4-4.3.4-1.2,1.6-1.7,3.6-1.5,1.6.1,3.7-.4,4.6-1.2,1.6-1.4,1.6-1.5-.6-2.1-3.5-1-7.2-1-8.8,0Z"/>
  <path class="st1" d="M1035.55,417.46l-4.6,8.9,2.4,1.1c3.7,1.7,4.1,1.5,7.3-4.9,3.4-6.7,4.8-7.7,8.1-6,1.9,1.1,2.5,1,3.6-.6,1.2-1.6,1.1-2.1-.4-3.1-.9-.7-2.6-1.3-3.7-1.3-1.2,0-3-.7-4-1.5-1.1-.8-2.5-1.5-3-1.5-.6,0-3.2,4-5.7,8.9Z"/>
  <path class="st1" d="M512.15,414.26c-14.1,8-13.4,5.4-5.3,19.5,3.9,6.8,7.2,12.5,7.4,12.7.3.3,17.7-9.3,20.1-11.2.9-.7.9-1.4-.4-3.3l-1.5-2.4-7.4,4c-7.1,4-7.3,4-8.4,2-1.4-2.6-.8-3.6,4.3-6.1,6.5-3.3,6.9-3.7,5.1-6.4l-1.5-2.4-6.1,3.6c-5.8,3.4-6.2,3.5-7.5,1.8-.7-1.1-1.3-2.2-1.3-2.6s3.1-2.5,7-4.6l6.9-3.9-1.7-2.6-1.8-2.7-7.9,4.6Z"/>
  <path class="st1" d="M1063.85,410.76c-3,3,.3,7.7,4,5.7,3-1.6,1.6-6.9-1.7-6.9-.6,0-1.6.5-2.3,1.2Z"/>
  <path class="st1" d="M1054.75,426.16c-2.8,4.7-5.1,9-5.1,9.5,0,.9,3.3,2.9,4.8,2.9.8,0,5.5-7.4,10.8-17.1.2-.3-1-1.3-2.6-2.2l-2.9-1.7-5,8.6Z"/>
  <path class="st1" d="M1069.75,430.76l-7.4,12,2.4,1.9c1.3,1,2.6,1.9,2.9,1.9.5,0,14-22,14.9-24.2.3-1-2.8-3.7-4.4-3.7-.5,0-4.3,5.4-8.4,12.1Z"/>
  <path class="st1" d="M1082.45,438.86l-7.7,12.2,2.5,1.3c1.4.7,2.9,1.2,3.4,1s4.3-5.5,8.4-11.8l7.5-11.5-2.2-1.7c-1.2-1-2.6-1.7-3.2-1.7-.5,0-4.5,5.5-8.7,12.2Z"/>
  <path class="st1" d="M1096.45,446.16c-5.2,2.8-7.2,9.8-4.3,15.3,2.3,4.6,10.6,7.6,14.4,5.2,1.2-.8,1.1-1.3-1-3-1.3-1.1-3-1.8-3.7-1.6-2.3.8-5.2-1.4-5.2-4,0-1.4.3-2.5.8-2.5.4,0,3.4,1.8,6.6,4,6.7,4.4,8.1,4.1,9.2-1.5.8-4.3-1.2-8.3-5.5-11.2-3.9-2.6-7.4-2.9-11.3-.7ZM1107.35,453.16c1.1,3-1.4,3.7-4.7,1.3-2.8-2.1-2.9-2.5-1.4-3.6,1.9-1.4,5.1-.2,6.1,2.3Z"/>
  <path class="st1" d="M1117.25,466.76l-6.6,8.3,2.3,1.7c1.2,1,2.5,1.8,2.8,1.8.4,0,2.6-2.5,4.9-5.5,4.4-5.6,6.4-6.5,10-4.3,1.5,1,2.2,1,3.1.1,1.8-1.8.3-4.3-3.1-4.9-1.6-.4-2.8-.9-2.6-1.3.2-.3-.7-1.4-2-2.4l-2.3-1.7-6.5,8.2Z"/>
  <path class="st1" d="M1142.25,491.66l-9.8,10.9,2.4,2c3,2.5,3.2,2.5,6.3-1.2,2.1-2.5,2.8-2.9,3.6-1.7.5.8.9,1.8.9,2.2,0,1.6,7.2,3.8,10.1,3.2,4.4-1,8.9-6.8,8.9-11.6q0-4.2-8.6-11.4l-4.1-3.4-9.7,11ZM1158.45,493.36c.7,5-5.8,10.1-9.3,7.2-2.1-1.7-1.9-4.3.6-7.4,2.8-3.5,8.2-3.4,8.7.2Z"/>
  <path class="st1" d="M1170.65,504.36c0,1.4,3.5,4.2,5.2,4.2.8,0,2.3.9,3.3,2,1.4,1.6,1.6,2.3.7,3.2-1,1-1.9.8-4-.5-7.1-4.6-8.9-5.1-11.6-3.3-3.7,2.3-3.5,6.9.3,10.7,1.6,1.6,3.7,2.9,4.5,2.9.9,0,1.6.6,1.6,1.3,0,.8,1,2.2,2.1,3.3,1.9,1.6,2.3,1.7,2.7.4.3-.8,2.4-3.3,4.8-5.5,5.9-5.6,6.8-7.7,5-11.8-1.8-4.5-6.5-7.7-11-7.7-2,0-3.6.4-3.6.8ZM1173.75,516.56c2.1,1.7,2.2,2.1.9,3-2.1,1.4-3.6,1.2-5.4-.6-4-3.9.1-6.1,4.5-2.4Z"/>
  <path class="st1" d="M1187.25,527.86l-7.8,7.2,2.6,2.4,2.6,2.5,5.3-5.2c2.9-2.9,5.8-5.2,6.3-5.2.6,0,2.3.9,3.6,2,2.5,1.9,2.6,1.9,4.2.1s1.6-2-.6-3.5c-1.2-.9-2.8-1.6-3.6-1.6-.7,0-1.1-.4-.8-.9.3-.4-.5-1.8-1.7-2.9l-2.2-2.1-7.9,7.2Z"/>
  <path class="st1" d="M1213.65,535.06c-1.5,1.8-4,2-4,.3,0-.6-.9-.3-2,.7-1.4,1.2-1.7,2.2-1,3s-.4,2.5-4,5.7c-5.6,5.1-6.1,7.4-2.6,11.5,2.1,2.4,2.6,2.6,4,1.4,1-.9,1.4-2.1,1-3.3-.4-1.3.2-2.8,1.8-4.5,3.4-3.7,5.7-4.7,7.4-3.2,2.2,1.8,4.2-.4,2.3-2.7-1.2-1.4-1-1.9,1.4-3.8l2.7-2.2-2.3-2.2c-2.8-2.6-3.1-2.7-4.7-.7Z"/>
  <path class="st1" d="M1215.65,556.26c-3.9,2.7-4.9,4.5-5,8.9,0,5,2.8,9,7.7,11.1,7.1,2.9,15.3-2.5,15.3-10.2,0-3.4-2.4-8-5.2-9.9-3-2.1-9.7-2-12.8.1ZM1226.65,562.06c1.9,2.3.4,6-3.4,8-3.4,1.9-3.6,1.9-5.5,0-2.6-2.3-2.6-3.6,0-6.9,2.3-2.9,6.9-3.5,8.9-1.1Z"/>
  <path class="st1" d="M1235.55,578.56c-7.2,5.3-8.8,8.4-6.9,13,.6,1.5,2.2,3.3,3.6,4,1.3.8,2.4,1.9,2.4,2.5,0,.7.8,1.9,1.8,2.8,1.7,1.6,2.3,1.3,10-4.4,8.1-6,8.1-6.1,6.6-8.5-.9-1.3-1.9-2.4-2.3-2.4s-3.2,1.8-6.1,4c-6.1,4.5-7,4.7-9.4,2.1-2.3-2.5-1.4-4,4.9-8.5,3-2.2,5.5-4.2,5.5-4.5s-.8-1.6-1.8-2.8l-1.7-2.2-6.6,4.9Z"/>
  <path class="st1" d="M1263.35,597.36c-2.2,1.3-2.9,1.4-3.6.4-1.2-1.9-4.3-.3-3.6,1.8.4,1.4-.6,2.7-3.9,5-6.8,4.6-7.9,8.2-4.1,13.3,2,2.7,5.4.7,4.8-2.7-.4-2,.2-2.9,3.6-5,4.3-2.8,6.1-3.2,6.1-1.6,0,1.3,2.7,1.3,3.5,0,.4-.6.2-1.7-.5-2.5-.9-1.1-.6-1.7,1.4-3,3.1-2,3.1-2.3.8-5.2-1.6-2.1-1.8-2.2-4.5-.5Z"/>
  <path class="st1" d="M622.75,665.76c-11,5.7-10.9,21.8.2,26.8,5.6,2.6,9.5,2.5,14.7-.3,7.3-3.9,10.1-12.6,6.4-20.3-3.4-7.2-13.7-10.2-21.3-6.2Z"/>
  <path class="st1" d="M1042.65,665.76c-10.4,5.3-11.2,19.1-1.7,26.2,2.1,1.5,4.3,2.1,8.7,2.1s6.6-.6,8.7-2.1c6.4-4.8,8.5-13.9,4.7-20.5-2.1-3.7-9.2-7.9-13.4-7.9-1.4,0-4.6,1-7,2.2Z"/>
  <path class="st1" d="M1196.25,665.76c-3.6,5.7-15.6,25.9-15.6,26.4,0,.2,5.9.3,13.2.2l13.2-.3,8.3-13.8c4.6-7.6,8.3-14,8.3-14.3,0-.2-5.8-.4-13-.4-12.3,0-13,.1-14.4,2.2Z"/>
  <path class="st2" d="M1363.25,666.06c-11.6,4.1-21,21.4-25.1,46.3-2.6,15.6-1.7,38.6,1.9,50.7,4.1,13.5,8.2,21.2,14.6,27.7,6.4,6.4,11.3,8.3,19.7,7.6,6.8-.6,12.1-4.3,17.2-11.9,16.6-24.9,18.7-72.1,4.4-101.8-7.8-16.3-19.9-23.2-32.7-18.6Z"/>
  <path class="st1" d="M380.65,710.26c0,21.4.5,41.9,1,45.8,2.9,20.1,17.8,34.9,39.4,39,32.4,6.2,60.6-9.2,65.5-35.9.7-3.7,1.1-21.5,1.1-46.8v-40.8h-31v39.2c0,24.4-.4,40.7-1.1,43.1-2.4,8.6-11.1,14.6-21.2,14.7-9.6,0-16.3-3.8-19.8-11.5-1.7-3.7-1.9-7.3-1.9-44.8v-40.7h-32v38.7Z"/>
  <path class="st1" d="M1091.65,692.56v13h-13v18h13v22.8c0,27.1.8,31,7.4,37.7,6.5,6.4,13,8.5,27.1,8.5h11.5v-21h-5.8c-3.6,0-6.6-.6-8-1.6-2.2-1.5-2.2-1.9-2.2-24v-22.4h16v-18h-16v-26h-30v13Z"/>
  <path class="st1" d="M961.65,702.66c-8.3,1.3-17.8,6.5-21.5,11.7-2.6,3.8-3,5.4-3.3,12.1-.8,15.9,5.9,21.7,31.3,27.6,17.7,4.1,23.5,7.3,23.5,13.1,0,2.9-5.1,7.1-9.6,8-4.9.9-12.8-.2-15.8-2.1-1.3-.9-2.9-2.9-3.6-4.5l-1.2-3h-27.9l.7,3.7c3.2,18,24.1,28,52.6,25.3,21.4-2,31.3-9.8,32.5-25.4.7-8.3-1-13.9-5.8-19.1-5.1-5.5-10.2-7.6-29-12.1-12.9-3.1-15.8-4.1-18.2-6.6-2.7-2.6-2.8-3-1.4-5.1,2.1-3.3,5.6-4.7,11.5-4.7s10.6,1.9,12.2,5c1,1.9,2.1,2,15.1,2h14.1l-.7-3.3c-1.8-7.9-6.9-14.4-14.8-18.4-9.5-4.8-26.1-6.5-40.7-4.2Z"/>
  <path class="st1" d="M795.15,703.56c-11.6,2.1-20.1,6.5-26.8,14-11.1,12.3-14.1,28.5-8.7,46.2,6.3,20.6,29.4,35.6,51,33.3,12-1.3,23.5-6.7,30-14.2,3-3.4,8-12.3,8-14.3,0-.6-5.3-1-15-1h-14.9l-1.6,3c-3.7,7.2-15.5,8.1-22.3,1.7-2.4-2.2-5.4-7.3-6.6-11.5l-.7-2.2h64.1v-7.5c0-23-11.1-39.4-31-45.6-7.2-2.2-18.8-3.1-25.5-1.9ZM809.45,723.96c3.7,1.9,6.8,5.5,8.7,9.8,2.9,7,3.4,6.8-15.6,6.8h-17.1l.7-2.8c1.2-4.8,4.9-10.6,8.4-12.9,3.9-2.7,10.7-3.1,14.9-.9Z"/>
  <path class="st1" d="M1187.15,703.56c-15.3,2.7-26.8,10.8-33,23-11.9,23.5-1.8,53.2,22.3,65.3,9.7,4.8,18.7,6.3,28.8,4.8,16.8-2.5,30-12.4,35.3-26.4l1.1-2.7h-29.8l-2.2,3.4c-3.7,6-14.3,7.4-20.8,2.7-2.9-2-8.2-11-8.2-13.8,0-1,6.3-1.3,31.5-1.3h31.5v-8.3c0-14.3-3.6-24.3-12.1-33.2-5.3-5.6-12-9.7-19.5-12-6.2-1.8-18.7-2.6-24.9-1.5ZM1204.75,726.16c3.3,3.1,5.7,7.1,7,11.6l.8,2.8h-34.1l.6-3.2c1-5,5.2-11.4,8.8-13.2,5.2-2.6,13-1.7,16.9,2Z"/>
  <path class="st1" d="M553.15,704.16c-4.6,1.2-8.3,2.9-12.7,6.1l-4.8,3.3v-7h-27v87h29v-29.4c0-28.8,0-29.4,2.3-32.7,5.6-8.4,17.6-9.1,24.7-1.4l2.5,2.7.3,30.4.3,30.4h28.9v-29.8c0-33.2-.4-36.2-6.3-44.5-4.1-5.8-10-10.2-16.9-12.9-5.2-1.9-16.4-3.2-20.3-2.2Z"/>
  <path class="st1" d="M910.15,704.26c-4.2.9-8.2,2.8-12.7,6l-4.8,3.3v-7h-27v88h29v-29.3c0-25.8.2-29.6,1.8-32.6,2.7-5.5,7.9-7.5,20-7.9l10.2-.4v-20.8l-7.2.1c-4,.1-8.2.3-9.3.6Z"/>
  <path class="st1" d="M713.65,729.76c-4.6,13.4-8.6,25-9.1,25.8-.9,1.8.3,4.8-10.4-25.2l-8.3-23.3-14.1-.3c-7.7-.1-14.1.1-14.1.5,0,.5,7,19.8,15.7,43.1l15.7,42.2,15-.2,14.9-.3,15.4-41c8.4-22.6,15.6-42,15.9-43.3l.6-2.2h-28.9l-8.3,24.2Z"/>
  <path class="st1" d="M615.65,750.56v44h29v-88h-29v44Z"/>
  <path class="st1" d="M1036.65,750.56v44h29v-88h-29v44Z"/>
  <path class="st4" d="M1363.25,817.56c-13.5,5.4-22.5,23.8-25.6,52-1.6,14.5-.8,33,1.9,43.5,2.7,10.3,8.9,23.1,13.7,28.5,10.1,11.2,23.7,11.8,33.9,1.5,17.8-17.8,24.1-64,13.2-96-8.6-25-21.9-35.7-37.1-29.5Z"/>
  <path class="st1" d="M915.55,837.86c-13.2,8.8-6.1,28.5,9.9,27.4,8.8-.6,14.4-6.2,14.4-14.4,0-9.8-5.4-15.3-15.3-15.3-4.2,0-6.5.6-9,2.3Z"/>
  <path class="st1" d="M308.45,861.26c-.3,19.6-.3,19.8-2.1,16.5l-1.8-3.2h-12.7c-15.3,0-20.6,1.3-29.3,7.3-27.2,18.6-23.8,66.1,5.7,79.9,9.5,4.4,19.4,5.7,27.6,3.4,3.4-.9,8-2.8,10-4.2,2.1-1.3,4-2.4,4.3-2.4s.5,1.3.5,3v3h27v-123h-29l-.2,19.7ZM298.45,897.96c3.4,1.8,6.4,5.1,8.8,9.6,1.5,2.7,1.9,5.7,1.9,13.5s-.4,10.8-1.9,13.5c-4,7.7-8.9,11-16.1,11-8.3,0-14.2-5-17-14.2-3.9-13.2,0-27.5,8.9-32.9,3.7-2.3,11.5-2.5,15.4-.5Z"/>
  <path class="st1" d="M636.35,865.26c-4.7,12.6-15.1,40-23,61l-14.5,38.3h30.4l1.3-3.8c.8-2,2.7-7.2,4.3-11.5l3-7.7,23.1.2,23,.3,3.7,11,3.7,11,15,.3,15.1.3-16-42.3c-8.8-23.3-19.1-50.7-23-61.1l-7-18.7h-30.5l-8.6,22.7ZM666.65,898.36c3.3,9.4,6,17.3,6,17.6s-6.1.6-13.6.6c-10.5,0-13.5-.3-13.2-1.3.3-.6,3.3-9.2,6.8-19,4.3-12.3,6.6-17.4,7.2-16.4.4.8,3.5,9.2,6.8,18.5Z"/>
  <path class="st1" d="M958.65,903.56v61h29v-122h-29v61Z"/>
  <path class="st1" d="M1008.65,903.56v61h29v-122h-29v61Z"/>
  <path class="st1" d="M846.65,863.56v13h-14v17.9l6.8.3,6.7.3.5,25.5c.5,27.9.7,28.5,7.1,34.9,6.3,6.4,15.6,9.1,31.2,9.1h7.7v-23h-7.3c-4.3,0-7.8-.5-8.5-1.2-.9-.9-1.2-7.5-1.2-23.5v-22.3h17v-18h-17v-26h-29v13Z"/>
  <path class="st1" d="M487.65,873.66c-19.3,2.8-29.3,13.1-27.7,28.6,1.3,12.2,9.6,18.2,32.5,23.3,7.3,1.6,15,3.9,17.3,5,11,5.7,5.2,16-9.1,16-8.2,0-13.1-2.3-14.5-6.8l-.9-3.2h-13.8c-13.4,0-13.8.1-13.8,2.1,0,10.9,10.7,21.5,25.5,25.6,11.7,3.1,31.1,2.6,42.6-1.2,5.8-2,12.3-7.5,15.1-12.9,3.1-5.9,3.2-18.4.1-24.1-3.9-7.4-11.4-12-24.3-15-20.2-4.7-23.7-5.7-26-7.4-1.4-1-2.6-3-2.8-4.4-.5-4,3.7-6.2,11.8-6.2,7.5,0,11.8,1.7,13.1,5.2.8,2.2,1.2,2.3,14.9,2.3h14l-.6-3.3c-1-5.2-4.3-11.4-7.6-14.2-10.1-8.5-27.7-12.1-45.8-9.4Z"/>
  <path class="st1" d="M1188.15,873.66c-16.2,2.4-25.1,9-27.5,20.6-2.2,10.4,2.2,19.8,11.3,24.5,6,3,11.2,4.7,21.7,6.9,15.1,3.3,22,6.9,22,11.6,0,6.2-5.1,9.3-15.2,9.3-7.4,0-12.4-2.5-14.1-7l-1.1-3h-27.8l.7,3.7c3.3,18.5,24.5,28.7,53,25.5,22.4-2.5,31.2-9.5,32.3-26,.6-9.2-1.4-14.6-7.2-20-5.2-4.8-11.3-7.1-27.6-10.7-18.6-4-23.2-7.1-19.2-12.4,4.6-6.1,20.8-5,23.7,1.6.9,2.2,1.4,2.3,14.9,2.3h13.9l-.7-4.1c-.9-5.8-2.9-9.1-8.2-13.8-9.5-8.3-26.2-11.7-44.9-9Z"/>
  <path class="st1" d="M385.55,875.96c-12.6,3.5-22.7,11.8-28,23.1-4.7,9.9-5.5,16.1-3.5,26.8,2.2,12,6.4,20.5,13.5,27.6,17.9,17.8,45.7,20.1,64.6,5.1,4.4-3.4,10.6-12,12.3-16.9l1.1-3.1h-29.8l-1.6,3c-.8,1.6-2.9,3.6-4.5,4.5-3.7,1.9-11.3,1.9-14.8.1-5.5-2.9-10.2-9.6-10.2-14.7,0-1.8,1-1.9,31.5-1.9h31.5v-7.8c0-23.2-12.4-40.2-33.3-45.8-6.4-1.7-22.6-1.7-28.8,0ZM405.95,894.96c5.2,2.1,9.5,7.9,11.3,15.1l.6,2.5h-35.2l.6-2.8c3-12.4,12.9-18.9,22.7-14.8Z"/>
  <path class="st1" d="M773.45,875.86c-2,.8-5.6,2.8-8,4.6l-4.3,3.2-.3-3.6-.3-3.5h-26.9v88h28.9l.3-30.4c.3-29.1.4-30.6,2.4-33.3,6-8.1,20.8-7.7,25.8.7,1.4,2.4,1.6,6.8,1.6,32.9v30.1h29v-31c0-29.2-.1-31.2-2.2-36.7-2.7-7.3-9.9-15-17.5-18.8-4.9-2.5-7.2-2.9-15.3-3.2-6.3-.2-10.7.1-13.2,1Z"/>
  <path class="st1" d="M1084.45,876.46c-3.1,1-7.7,3-10,4.4-5.3,3.1-12.9,11.1-15.6,16.3-3.8,7.4-7,22.8-5.1,24,.5.3.9,2,.9,3.9,0,5,3.6,15.5,7,20.8,4,5.9,12.2,13.4,18.6,16.9,22.1,12,51.4,4.4,62.3-16.1,1.7-3.2,3.1-6.4,3.1-7,0-.8-4.6-1.1-14.7-1.1l-14.8.1-2,3.2c-2.9,4.5-6,5.8-12.8,5.4-4.9-.3-6.2-.8-9.3-3.8-3.4-3.2-5.2-6.3-6.8-11.7l-.7-2.2h64.1v-4.8c-.1-14.9-4.5-27.5-12.7-36.3-9.2-9.9-19.6-13.9-35.6-13.8-7,0-12,.6-15.9,1.8ZM1106.45,894.96c5.1,2.7,11.2,11.1,11.2,15.6,0,.6-6,1-17,1-14.5,0-17-.2-17-1.5,0-2.2,3.9-10.1,5.8-11.8,5-4.6,12-5.9,17-3.3Z"/>
  <path class="st1" d="M909.65,920.56v44h29v-88h-29v44Z"/>
  <path class="st0" d="M1329.25,1005.36c-4.8,14.8-29.6,63.6-43.6,85.9-30.4,48.4-80.6,102.4-128.5,138.3-81.8,61.2-172.3,96-277,106.4l-13,1.3,6,.8c7.1,1,47.2,0,63.5-1.5,41.8-3.9,86.6-13.5,128.5-27.5,63.7-21.2,120.5-53,172.5-96.4,14.2-11.9,42.8-39.8,56.3-54.9,40.1-45,70.8-93.7,93.6-148.5l4-9.7h-60.4l-1.9,5.8Z"/>
  <path class="st4" d="M441.35,1017.26c-2.9,4.3-5.7,8.4-6.1,9-.5,1,.9,1.3,6.1,1.3l6.8-.1,3.1-4.4,3-4.5,3.3,4.5,3.2,4.5h14l-5.2-7.3c-2.8-3.9-5.6-8-6.2-9-1-1.4-2.6-1.7-8.9-1.7h-7.7l-5.4,7.7Z"/>
  <path class="st4" d="M353.65,1054.46v43.1h18v-31.7l14.3-.5c11.8-.4,15-.8,19.3-2.7,8.9-3.9,13.6-10.4,14.9-20.8,1.6-11.6-3.6-22.4-13-27.2-4.8-2.5-5.5-2.6-29.2-2.9l-24.3-.4v43.1ZM397.35,1029.36c5.5,3.9,6.3,11.7,1.8,16.6-3.1,3.3-8.3,4.6-18.7,4.6h-8.8v-24.2l11.3.3c9.7.4,11.6.7,14.4,2.7Z"/>
  <path class="st4" d="M500.65,1054.56v43h16v-86h-16v43Z"/>
  <path class="st4" d="M635.65,1054.56v43h16l.2-33.3.3-33.2,8.4,33.3,8.4,33.3,8.5-.3,8.6-.3,8.2-32.5,8.2-32.5.1,17c.1,9.3.4,24.1.8,32.7l.6,15.8h15.7v-86h-26.5l-7.4,28.1c-4.1,15.4-7.8,28.2-8.1,28.4-.4.2-4-11.8-8-26.8-4-14.9-7.5-27.7-7.7-28.4-.4-1-3.9-1.3-13.4-1.3h-12.9v43Z"/>
  <path class="st4" d="M892.65,1019.06v7.5h16v-15h-16v7.5Z"/>
  <path class="st4" d="M1001.65,1019.06v7.5h16v-15h-16v7.5Z"/>
  <path class="st4" d="M861.45,1017.56l-7.8,4.5v12.5h-8v13h8v20c0,23.7.6,26,7.2,29,2.4,1.1,6.3,2,8.8,2,4.3,0,11.7-1.3,12.6-2.3.2-.2.2-2.9-.2-6l-.7-5.7-4.5.3c-6.7.3-7.2-1.2-7.2-21.1v-16.2h12v-13h-11.9l-.3-10.8-.3-10.8-7.7,4.6Z"/>
  <path class="st4" d="M442.95,1035.36c-10.4,3.7-16.4,9.9-19.9,20.5-2.4,7.2-1.5,19,2.1,26.2,3,6.3,6.8,9.8,14.5,13.4,4.6,2.2,6.9,2.6,14.5,2.6s9.7-.4,14.7-2.8c6.5-3.2,12.1-8.9,15.2-15.6s3-20.6-.2-27.7c-2.9-6.4-9.2-12.6-15.7-15.5-6.9-3.1-18.2-3.6-25.2-1.1ZM462.45,1049.36c4.5,3.3,6.7,8.6,6.7,16.7,0,12.4-5.3,19-15.2,19-8.7,0-14.1-5.8-15-16.3-1.2-13.6,5.6-22.8,16.4-21.8,2.2.2,5.5,1.3,7.1,2.4Z"/>
  <path class="st4" d="M549.55,1034.86c-8.8,3.3-14.2,8.4-17.6,16.8-1.3,3.3-1.8,7.1-1.8,14.9,0,12.4,2.2,18.7,8.6,24.5,5.2,4.6,10,6.5,18.4,7.2,12.4.9,22.1-3.6,27.4-12.9,1.7-2.9,3.1-5.6,3.1-6,0-.6-2.2-1-12.1-2.4-4.4-.6-4.6-.5-5.9,2.6-3.7,9-17.4,7.3-21.6-2.7-2.8-6.5-3.6-6.3,19.7-6.3h21.2l-.6-6.8c-1.3-14-5.7-21.9-14.9-26.6-6.8-3.4-17.9-4.5-23.9-2.3ZM567.85,1050.26c1.7,1.7,3.1,4.4,3.5,6.6l.6,3.7h-25.5l.8-3.2c1.6-7.4,6.3-11.1,13.3-10.4,3.1.3,5.2,1.2,7.3,3.3Z"/>
  <path class="st4" d="M752.15,1034.46c-7.5,2-12.2,5.9-15.4,13.1l-2,4.5,2.2.6c1.2.3,4.5.9,7.4,1.3,5,.6,5.2.5,6.9-2.3,2.3-3.9,6.3-5.5,12.5-4.9,5.8.6,7.6,2,8.5,6.5.6,3.1.5,3.2-4.7,4.7-3,.8-8.8,2.2-13,3.1-4.2.8-9.6,2.6-12,3.8-10.8,5.5-12.8,19.1-4,27.8,8,8.1,23.2,7.7,32.3-.8l2.7-2.5,1.1,4.1,1.1,4.1h7.9c8.4,0,9-.4,6.8-4.3-.9-1.5-1.4-9.5-1.8-24.7-.6-26.2-1.1-27.8-9.4-31.9-3.9-1.9-6.7-2.5-14.5-2.7-5.3-.2-10.9,0-12.6.5ZM772.35,1073.66c-.7,5.8-2.6,8.5-7.4,10.5-4.2,1.8-7.7,1.8-11.3-.1-4.8-2.5-5.2-8.3-.7-10.7,1.8-.9,15.2-4.3,19.1-4.7.5-.1.6,2.2.3,5Z"/>
  <path class="st4" d="M828.65,1034.26c-.8.3-3.2,2.2-5.2,4.1l-3.8,3.6v-7.4h-16v63h16.8l.4-19.3c.3-15.5.7-19.8,2-22.3,2.7-5,8.7-6.7,14-4l2.7,1.4,2.1-6.9c1.1-3.7,2.3-7.5,2.6-8.2,1-2.8-10.6-5.8-15.6-4Z"/>
  <path class="st4" d="M955.65,1034.46c-4.2,1.4-8.4,3.8-10.4,6-2.8,3-3.6,2.6-3.6-1.9v-4h-15v63h15.7l.5-20.3c.4-16.6.7-20.8,2.2-23.5,3.6-6.9,12.9-9.4,18.2-4.8,3.5,2.9,4.3,9.1,4.3,32.3l.1,16.3h16.1l-.3-25.8c-.3-29.3-.7-30.6-8.7-35.1-4.6-2.5-14.6-3.7-19.1-2.2Z"/>
  <path class="st4" d="M1051.65,1034.46c-8.1,2.5-14.8,9.1-17.7,17.5-2.5,7.5-2.2,21.3.7,29,6.5,17.1,24.6,22.8,38.5,12.2l3.5-2.7v31.1h17v-87h-16v8.4l-3.2-3.2c-5.8-5.5-15-7.6-22.8-5.3ZM1069.65,1048.36c5.2,2.8,7.5,8.2,7.4,17.2-.1,5.6-.6,8.6-2.2,11.6-5.4,10.6-18.3,11.1-23.2,1-1.5-3.2-2-6.2-2-12.2,0-9.3,1.8-13.7,6.9-17.1,4.1-2.8,8.5-2.9,13.1-.5Z"/>
  <path class="st4" d="M1198.55,1034.86c-8.8,3.3-14.2,8.4-17.6,16.8-1.3,3.3-1.8,7.1-1.8,14.9,0,12.4,2.2,18.7,8.6,24.5,5.2,4.6,10,6.5,18.4,7.2,12.4.9,22.1-3.6,27.4-12.9,1.7-2.9,3.1-5.6,3.1-6,0-.6-2.2-1-12.1-2.4-4.4-.6-4.6-.5-5.9,2.6-3.7,9-17.4,7.3-21.6-2.7-2.8-6.5-3.6-6.3,19.7-6.3h21.2l-.6-6.8c-1.3-14-5.7-21.9-14.9-26.6-6.8-3.4-17.9-4.5-23.9-2.3ZM1216.85,1050.26c1.7,1.7,3.1,4.4,3.5,6.6l.6,3.7h-25.5l.8-3.2c1.6-7.4,6.3-11.1,13.3-10.4,3.1.3,5.2,1.2,7.3,3.3Z"/>
  <path class="st4" d="M892.65,1066.06v31.5h16v-63h-16v31.5Z"/>
  <path class="st4" d="M1001.65,1066.06v31.5h16v-63h-16v31.5Z"/>
  <path class="st4" d="M1108.85,1058.76c.3,22,.6,24.7,2.5,28.9,3.1,6.9,10,10.9,18.9,10.9,5.6,0,13.9-3.2,17.6-6.7l2.8-2.7v8.4h16v-63h-17v19.2c0,10.6-.5,21-1,23-1.3,4.6-5.7,7.9-11.4,8.5-3.7.5-4.8.1-7.7-2.5l-3.4-3-.3-22.6-.4-22.6h-17l.4,24.2Z"/>
  <path class="st4" d="M1755.65,543.06v109.5h29v-219h-29v109.5Z"/>
  <path class="st4" d="M1838.65,506.96c0,46.6.4,76.3,1.1,81.3,1.4,10.3,6.1,24.2,10.9,32.4,7.7,13,24.4,25.7,40,30.3,13.9,4.2,36.6,5.7,52.9,3.6,12-1.6,20-3.9,30-8.7,7.9-3.8,10.9-5.9,17.6-12.7,9.7-9.6,15-19.3,19.2-35.1l2.7-10,.4-77.3.3-77.2h-30l-.3,76.7c-.3,69.8-.5,77.4-2.1,82.8-7.7,26.4-24.1,37.5-55.2,37.5-36.7,0-54.3-16-57.5-52.3-.5-6.2-1-41.2-1-78v-66.7h-29v73.4Z"/>
  <path class="st4" d="M2042.65,446.06v12.5h62v194h29v-194h62v-25h-153v12.5Z"/>
  <path class="st4" d="M1991.25,738.66c-5.1,4-2.1,11.9,4.4,11.9,3.6,0,8-3.9,8-7,0-2.8-4.4-7-7.3-7-1.3,0-3.6.9-5.1,2.1Z"/>
  <path class="st4" d="M2411.25,738.66c-5.1,4-2.1,11.9,4.4,11.9,3.6,0,8-3.9,8-7,0-2.8-4.4-7-7.3-7-1.3,0-3.6.9-5.1,2.1Z"/>
  <path class="st4" d="M2709.25,738.66c-5.1,4-2.1,11.9,4.4,11.9,3.6,0,8-3.9,8-7,0-2.8-4.4-7-7.3-7-1.3,0-3.6.9-5.1,2.1Z"/>
  <path class="st4" d="M2868.25,738.66c-5.1,4-2.1,11.9,4.4,11.9,3.6,0,8-3.9,8-7,0-2.8-4.4-7-7.3-7-1.3,0-3.6.9-5.1,2.1Z"/>
  <path class="st4" d="M1755.65,787.56v48h12v-96h-12v48Z"/>
  <path class="st4" d="M2230.65,770.86c0,18.4.5,33.8,1.1,37.3,3.3,17.8,14.1,26.9,33.6,28.1,14.1,1,26.1-2.6,33-9.9,1.8-1.8,4.5-6,6-9.3l2.8-6,.3-35.8.3-35.7h-13.1v32.8c0,35-.4,38.8-5,45.2-3,4.2-9.3,7.2-16.6,7.8-13.7,1.1-21.6-2.5-26.2-11.8l-2.7-5.5-.3-34.3-.4-34.2h-12.8v31.3Z"/>
  <path class="st4" d="M1945.65,755.56v8h-12.1l.3,4.7.3,4.8,5.7.3,5.7.3.3,24.7c.3,23.1.4,25,2.5,28.7,3.1,5.9,7.2,7.8,17.5,8.3l8.8.4v-10.2h-6.3c-10.3,0-10.1.5-10.5-28.1l-.3-23.9h17.1v-10h-17v-16h-12v8Z"/>
  <path class="st4" d="M2027.65,755.56v8h-12.1l.3,4.7.3,4.8,5.7.3,5.7.3.3,24.7c.3,23.1.4,25,2.5,28.7,3.1,5.9,7.2,7.8,17.5,8.3l8.8.4v-10.2h-6.3c-10.3,0-10.1.5-10.5-28.1l-.3-23.9h17.1v-10h-17v-16h-12v8Z"/>
  <path class="st4" d="M2156.65,755.56v8h-12.1l.3,4.7.3,4.8,5.7.3,5.7.3.3,24.7c.3,23.1.4,25,2.5,28.7,3.1,5.9,7.2,7.8,17.5,8.3l8.8.4v-10.2h-6.3c-10.3,0-10.1.5-10.5-28.1l-.3-23.9h17.1v-10h-17v-16h-12v8Z"/>
  <path class="st4" d="M2744.65,755.56v8h-12.1l.3,4.7.3,4.8,5.7.3,5.7.3.3,24.7c.3,23.1.4,25,2.5,28.7,3.1,5.9,7.2,7.8,17.5,8.3l8.8.4v-10.2h-6.3c-10.3,0-10.1.5-10.5-28.1l-.3-23.9h17.1v-10h-17v-16h-12v8Z"/>
  <path class="st4" d="M1819.65,763.46c-4.1,1.3-8.8,4-12.5,7.2l-3.5,3.1v-10.2h-12v72h12v-50.9l3-3.5c4.2-4.8,12.3-8.6,17.9-8.6,5.9,0,9,1.6,11.5,6,2,3.3,2.1,5.4,2.4,30.2l.3,26.8h12.1l-.4-27.8c-.4-23.3-.7-28.4-2.2-32.4-2.1-5.6-7-10.3-12.3-11.7-4.3-1.2-12.6-1.3-16.3-.2Z"/>
  <path class="st4" d="M1883.65,764.56c-14.3,4.9-18.6,20.8-8.1,30.3,3.7,3.4,7.3,4.8,24,9.7,8.8,2.5,13.1,6.2,13.1,11,0,7.5-6,12-16.2,12-9.3,0-16.8-5.6-16.8-12.4,0-2.5-.2-2.6-6.1-2.6h-6.1l.7,3.7c2.5,14.4,13.9,21.4,32.3,20,15.4-1.2,23.6-8.5,23.6-21.1-.1-11.7-5-16.5-22.6-21.6-16.8-4.9-19.7-6.7-19.7-12.5,0-3.9,1.7-6.1,6.2-8,10.1-4.2,22.7,1.2,22.7,9.6q0,2.9,6.1,2.9h6.2l-.7-4.1c-.9-5.5-2.8-9-7-12.7-6.9-6-20.9-7.9-31.6-4.2Z"/>
  <path class="st4" d="M2357.65,763.46c-4.1,1.3-8.8,4-12.5,7.2l-3.5,3.1v-10.2h-12v72h12v-50.9l3-3.5c4.2-4.8,12.3-8.6,17.9-8.6,5.9,0,9,1.6,11.5,6,2,3.3,2.1,5.4,2.4,30.2l.3,26.8h12.1l-.4-27.8c-.4-23.3-.7-28.4-2.2-32.4-2.1-5.6-7-10.3-12.3-11.7-4.3-1.2-12.6-1.3-16.3-.2Z"/>
  <path class="st4" d="M2526.65,764.46c-7.9,2.8-14.3,9.9-17.1,19.2s-2.4,25.5,1,34.1c2.6,6.8,8.6,13.2,14.9,16.1,6.6,3,22.6,3,29.2,0,7.7-3.6,14-12,14-18.8,0-2.4-.3-2.5-5.9-2.5h-5.8l-.7,3.9c-1.1,7.1-9.5,11.9-18.9,10.8-9.9-1.2-16-8.2-17.6-20.2l-.8-5.5h49.7v-6.4c0-19.6-10.4-31.3-28.5-32.3-6.2-.3-9.2.1-13.5,1.6ZM2544.75,772.56c6.2,1.7,11.9,9.9,11.9,17v3h-37v-2.8c0-3.9,4.6-12.7,7.7-14.7,5.1-3.4,11.1-4.2,17.4-2.5Z"/>
  <path class="st4" d="M2612.25,764.06c-2.1.7-5.8,3.3-8.2,5.6l-4.4,4.3v-10.4h-12v72h12v-50.3l2.5-3.3c3.1-4,11.7-8.4,16.7-8.4h3.8v-11h-3.2c-1.8.1-5.1.7-7.2,1.5Z"/>
  <path class="st4" d="M2648.65,764.56c-14.3,4.9-18.6,20.8-8.1,30.3,3.7,3.4,7.3,4.8,24,9.7,8.8,2.5,13.1,6.2,13.1,11,0,7.5-6,12-16.2,12-9.3,0-16.8-5.6-16.8-12.4,0-2.5-.2-2.6-6.1-2.6h-6.1l.7,3.7c2.5,14.4,13.9,21.4,32.3,20,15.4-1.2,23.6-8.5,23.6-21.1-.1-11.7-5-16.5-22.6-21.6-16.8-4.9-19.7-6.7-19.7-12.5,0-3.9,1.7-6.1,6.2-8,10.1-4.2,22.7,1.2,22.7,9.6q0,2.9,6.1,2.9h6.2l-.7-4.1c-.9-5.5-2.8-9-7-12.7-6.9-6-20.9-7.9-31.6-4.2Z"/>
  <path class="st4" d="M2804.25,764.56c-9.4,3-15.5,10.6-15.6,19.2v3.8h5.4c5.3,0,5.5-.1,6.1-3.3,1.3-5.7,3.5-8.8,7.8-10.8,8-3.6,18.6-1.8,22.3,3.8.9,1.5,1.9,5.4,2.2,8.9l.5,6.2-8.9.7c-29.6,2.3-38.4,7.5-38.4,23,0,7,1.7,11.2,6.3,15.2,8.8,7.7,24.1,7,35.3-1.6l5.2-3.9.6,4.9.7,4.9h10.9v-25.5c0-30.5-.6-34.3-6.4-40.1-7.1-7.2-21.3-9.5-34-5.4ZM2832.65,807.86c0,7.1-.1,7.5-3.6,11.1-4.8,4.9-10.7,7.7-17.3,8.3-6.3.5-9.3-.7-12.4-4.9-2.5-3.3-2.6-9.8-.3-13.4,3.2-4.8,13.9-8,27.9-8.3l5.7-.1v7.3Z"/>
  <path class="st4" d="M2926.25,764.06c-2.1.7-5.8,3.3-8.2,5.6l-4.4,4.3v-10.4h-12v72h12v-50.3l2.5-3.3c3.1-4,11.7-8.4,16.7-8.4h3.8v-11h-3.2c-1.8.1-5.1.7-7.2,1.5Z"/>
  <path class="st4" d="M2966.65,764.46c-7.9,2.8-14.3,9.9-17.1,19.2s-2.4,25.5,1,34.1c2.6,6.8,8.6,13.2,14.9,16.1,6.6,3,22.6,3,29.2,0,7.7-3.6,14-12,14-18.8,0-2.4-.3-2.5-5.9-2.5h-5.8l-.7,3.9c-1.1,7.1-9.5,11.9-18.9,10.8-9.9-1.2-16-8.2-17.6-20.2l-.8-5.5h49.7v-6.4c0-19.6-10.4-31.3-28.5-32.3-6.2-.3-9.2.1-13.5,1.6ZM2984.75,772.56c6.2,1.7,11.9,9.9,11.9,17v3h-37v-2.8c0-3.9,4.6-12.7,7.7-14.7,5.1-3.4,11.1-4.2,17.4-2.5Z"/>
  <path class="st4" d="M1989.65,799.56v36h12v-72h-12v36Z"/>
  <path class="st4" d="M2071.65,790.36c0,30.4.7,34.8,6.5,40.6,8.3,8.4,25.9,7.2,37-2.5l3.5-3.1v2.8c0,6.6.8,7.4,6.6,7.4h5.4v-72h-12v51.8l-4.1,3.7c-2.3,2-5.6,4.3-7.5,5.1-4.7,2-15.3,1.8-18.3-.2-4.6-3.3-5.1-6.4-5.1-34.4v-26h-12v26.8Z"/>
  <path class="st4" d="M2409.65,799.56v36h12v-72h-12v36Z"/>
  <path class="st4" d="M2436.95,772.36c1.8,4.8,7.7,21,13.2,36l10,27.2h13.3l4.1-11.3c2.3-6.1,8.1-22.2,13-35.7l8.9-24.5-5.5-.3c-3.1-.2-5.9.1-6.3.5s-5.2,13.7-10.6,29.5-10.2,28.4-10.5,28c-.4-.4-5-13.6-10.4-29.5l-9.8-28.7h-12.6l3.2,8.8Z"/>
  <path class="st4" d="M2707.65,799.56v36h12v-72h-12v36Z"/>
  <path class="st4" d="M2866.65,799.56v36h12v-72h-12v36Z"/>
  <path class="st4" d="M2597.25,913.66c-5.1,4-2.1,11.9,4.4,11.9,3.6,0,8-3.9,8-7,0-2.8-4.4-7-7.3-7-1.3,0-3.6.9-5.1,2.1Z"/>
  <path class="st4" d="M1801.65,931.76v17.2l-3.7-3.6c-5.1-4.9-9.6-6.9-16.3-7.5-12.3-1.2-22.4,4.7-27.6,15.9-2.5,5.6-2.9,7.6-3.2,18.5-.5,16.7,1.6,24.3,9.1,31.8,3.9,3.8,6.4,5.4,9.9,6.3,10.3,2.6,19.9.5,27.2-5.9l4.6-4.1v10.2h11v-96h-11v17.2ZM1792.55,950.46c1.8,1.3,4.6,4.4,6.2,6.9,2.8,4.5,2.9,5,2.9,17.8v13.2l-3.2,4.3c-4.5,5.8-10.6,8.9-17.8,8.9s-11.4-2.7-14.9-9.5c-2.4-4.5-2.6-6-2.6-17.5s.1-12.8,2.8-17.6c4-7.2,8.3-9.6,16.7-9.2,5,.3,7.4.9,9.9,2.7Z"/>
  <path class="st4" d="M1931.65,920.06v5.5h28v85h12v-85h28v-11h-68v5.5Z"/>
  <path class="st4" d="M2164.65,962.56v48h12v-50.9l3-3.5c4.2-4.8,12.3-8.6,17.9-8.6,5.9,0,9,1.6,11.5,6,2,3.3,2.1,5.4,2.4,30.2l.3,26.8h12.1l-.4-27.8c-.5-30.2-1-33.7-6.5-39.4-8.2-8.6-25.6-7.5-36.8,2.3l-3.5,3.1v-34.2h-12v48Z"/>
  <path class="st4" d="M2406.85,956.76c.3,40.5.4,42.5,2.3,45.8,2.9,4.8,7.4,7.1,15,7.8l6.5.5v-10.3h-3.9c-3.1,0-4.4-.6-6-2.6-2-2.6-2.1-3.7-2.1-43v-40.4h-12.1l.3,42.2Z"/>
  <path class="st4" d="M2574.65,930.46c-5,1.6-8.9,4.2-10.7,7.1-1.4,2.4-2.3,3-3.8,2.5-1.1-.4-5-.9-8.6-1.2-12.2-1-22.3,3.8-27.2,13.1-4.3,8.3-2.3,22.1,4.1,27.9q2,1.9-2.4,6.1c-5.9,5.7-5.8,10.1.4,15.4,2.6,2.2,2.7,2.3.7,3.4-3.7,2.1-7.4,6.9-8.1,10.4-1.6,8.4,2.7,15.4,11.8,19.5,4.6,2,6.9,2.3,17.8,2.4,9.7,0,13.7-.4,17.8-1.9,13.4-4.6,19.5-16.7,14-27.6-4-7.9-13.1-11-32.1-11-9.5,0-14.5-1-15.9-3.3-1.4-2.2-.8-3.7,2.3-5.6,2.5-1.6,3.7-1.7,6.7-.9,5.1,1.4,16.3.3,20.9-2,8.5-4.4,12.7-11.6,12.7-21.7,0-7.3-1.6-11.8-5.8-16.3-2.1-2.3-2.1-2.4-.1-3.8,2.2-1.6,8-3.4,11.3-3.4,2,0,2.2-.5,2.2-5,0-4.8-.1-5-2.7-4.9-1.6,0-3.9.4-5.3.8ZM2556.25,948.46c5.7,2.6,7.7,7.2,7.2,16.3-.4,6.6-.6,7.2-4,10.4-9,8.2-23.2,4.1-25.7-7.4-3.2-15.1,8.9-25.5,22.5-19.3ZM2562.95,1007.66c5.4,1.5,7.7,4.1,7.7,8.7,0,8.3-6.5,12.1-20.8,12.2-10.4,0-14.7-1.3-18-5.5-2.6-3.3-2.8-6.5-.7-10.5,2.5-4.8,5.8-5.9,17.5-6,5.8,0,12.2.5,14.3,1.1Z"/>
  <path class="st4" d="M1851.65,939.46c-7.9,2.8-14.3,9.9-17.1,19.2s-2.4,25.5,1,34.1c2.6,6.8,8.6,13.2,14.9,16.1,6.6,3,22.6,3,29.2,0,7.7-3.6,14-12,14-18.8,0-2.4-.3-2.5-5.9-2.5h-5.8l-.7,3.9c-1.1,7.1-9.5,11.9-18.9,10.8-9.9-1.2-16-8.2-17.6-20.2l-.8-5.5h49.7v-6.4c0-19.6-10.4-31.3-28.5-32.3-6.2-.3-9.2.1-13.5,1.6ZM1869.75,947.56c6.2,1.7,11.9,9.9,11.9,17v3h-37v-2.8c0-3.9,4.6-12.7,7.7-14.7,5.1-3.4,11.1-4.2,17.4-2.5Z"/>
  <path class="st4" d="M2027.65,939.46c-7.9,2.8-14.3,9.9-17.1,19.2s-2.4,25.5,1,34.1c2.6,6.8,8.6,13.2,14.9,16.1,6.6,3,22.6,3,29.2,0,7.7-3.6,14-12,14-18.8,0-2.4-.3-2.5-5.9-2.5h-5.8l-.7,3.9c-1.1,7.1-9.5,11.9-18.9,10.8-9.9-1.2-16-8.2-17.6-20.2l-.8-5.5h49.7v-6.4c0-19.6-10.4-31.3-28.5-32.3-6.2-.3-9.2.1-13.5,1.6ZM2045.75,947.56c6.2,1.7,11.9,9.9,11.9,17v3h-37v-2.8c0-3.9,4.6-12.7,7.7-14.7,5.1-3.4,11.1-4.2,17.4-2.5Z"/>
  <path class="st4" d="M2105.85,939.46c-7.6,2.6-12.2,6.7-16.2,14.6q-3.5,6.8-3.5,20.5t3.5,20.6c6.1,11.8,16.2,17.2,30.6,16.1,8.7-.6,14.8-3.2,19.7-8.2,3.6-3.7,6.7-10.8,6.7-15.2,0-2.1-.4-2.3-6-2.3-5.9,0-6,0-6,2.9,0,3.8-3.7,9-8,11.2-4.1,2.3-12.6,2.5-17.3.5-7.5-3.1-11.7-12.4-11.7-25.6,0-9.4,2.1-16.9,6-21.4,4.1-4.6,7.8-5.9,15.3-5.4,8.2.5,12,3.1,14.4,9.9l1.8,4.9h11.4l-.6-3.8c-.9-5.6-5.1-12.8-9.5-15.8-7.7-5.4-20.8-6.9-30.6-3.5Z"/>
  <path class="st4" d="M2273.65,938.46c-4.1,1.3-8.8,4-12.5,7.2l-3.5,3.1v-10.2h-12v72h12v-50.9l3-3.5c4.2-4.8,12.3-8.6,17.9-8.6,5.9,0,9,1.6,11.5,6,2,3.3,2.1,5.4,2.4,30.2l.3,26.8h12.1l-.4-27.8c-.4-23.3-.7-28.4-2.2-32.4-2.1-5.6-7-10.3-12.3-11.7-4.3-1.2-12.6-1.3-16.3-.2Z"/>
  <path class="st4" d="M2343.85,938.96c-8.6,2.8-14.7,8.6-18.9,18.1-1.4,3.2-1.8,6.8-1.8,17.6q0,13.6,3.5,20.5c6,11.8,16.1,17.1,30.6,16.2,13.3-.9,22.8-7.7,27.6-19.7,1.8-4.6,2.2-7.6,2.2-17.1s-.4-12.5-2.2-17.1c-5-12.5-14.6-19.1-28.6-19.6-5.1-.2-9.7.2-12.4,1.1ZM2364.55,949.36c13,6,14.7,40.3,2.3,49.1-6,4.3-18,4.5-23.7.4-1.4-1-3.7-4.2-5.2-7.2-2.2-4.5-2.8-7.2-3.1-14.6-.5-11.8,1.4-19.1,6.6-24.6,5.4-5.8,14.6-7,23.1-3.1Z"/>
  <path class="st4" d="M2462.85,938.96c-8.6,2.8-14.7,8.6-18.9,18.1-1.4,3.2-1.8,6.8-1.8,17.6q0,13.6,3.5,20.5c6,11.8,16.1,17.1,30.6,16.2,13.3-.9,22.8-7.7,27.6-19.7,1.8-4.6,2.2-7.6,2.2-17.1s-.4-12.5-2.2-17.1c-5-12.5-14.6-19.1-28.6-19.6-5.1-.2-9.7.2-12.4,1.1ZM2483.55,949.36c13,6,14.7,40.3,2.3,49.1-6,4.3-18,4.5-23.7.4-1.4-1-3.7-4.2-5.2-7.2-2.2-4.5-2.8-7.2-3.1-14.6-.5-11.8,1.4-19.1,6.6-24.6,5.4-5.8,14.6-7,23.1-3.1Z"/>
  <path class="st4" d="M2646.65,939.46c-7.9,2.8-14.3,9.9-17.1,19.2s-2.4,25.5,1,34.1c2.6,6.8,8.6,13.2,14.9,16.1,6.6,3,22.6,3,29.2,0,7.7-3.6,14-12,14-18.8,0-2.4-.3-2.5-5.9-2.5h-5.8l-.7,3.9c-1.1,7.1-9.5,11.9-18.9,10.8-9.9-1.2-16-8.2-17.6-20.2l-.8-5.5h49.7v-6.4c0-19.6-10.4-31.3-28.5-32.3-6.2-.3-9.2.1-13.5,1.6ZM2664.75,947.56c6.2,1.7,11.9,9.9,11.9,17v3h-37v-2.8c0-3.9,4.6-12.7,7.7-14.7,5.1-3.4,11.1-4.2,17.4-2.5Z"/>
  <path class="st4" d="M2595.65,974.56v36h12v-72h-12v36Z"/>
  <path class="st4" d="M2377.25,1088.66c-5.1,4-2.1,11.9,4.4,11.9,3.6,0,8-3.9,8-7,0-2.8-4.4-7-7.3-7-1.3,0-3.6.9-5.1,2.1Z"/>
  <path class="st4" d="M2492.25,1088.66c-5.1,4-2.1,11.9,4.4,11.9,3.6,0,8-3.9,8-7,0-2.8-4.4-7-7.3-7-1.3,0-3.6.9-5.1,2.1Z"/>
  <path class="st4" d="M1801.65,1106.76v17.2l-3.7-3.6c-5.1-4.9-9.6-6.9-16.3-7.5-12.3-1.2-22.4,4.7-27.6,15.9-2.5,5.6-2.9,7.6-3.2,18.5-.5,16.7,1.6,24.3,9.1,31.8,3.9,3.8,6.4,5.4,9.9,6.3,10.3,2.6,19.9.5,27.2-5.9l4.6-4.1v10.2h11v-96h-11v17.2ZM1792.55,1125.46c1.8,1.3,4.6,4.4,6.2,6.9,2.8,4.5,2.9,5,2.9,17.8v13.2l-3.2,4.3c-4.5,5.8-10.6,8.9-17.8,8.9s-11.4-2.7-14.9-9.5c-2.4-4.5-2.6-6-2.6-17.5s.1-12.8,2.8-17.6c4-7.2,8.3-9.6,16.7-9.2,5,.3,7.4.9,9.9,2.7Z"/>
  <path class="st4" d="M1941.85,1131.76c.3,40.5.4,42.5,2.3,45.8,2.9,4.8,7.4,7.1,15,7.8l6.5.5v-10.3h-3.9c-3.1,0-4.4-.6-6-2.6-2-2.6-2.1-3.7-2.1-43v-40.4h-12.1l.3,42.2Z"/>
  <path class="st4" d="M2088.65,1137.56v48h12v-77.5l14.3,23.8,14.2,23.8,4.4-.3,4.4-.3,13.6-23.1,13.6-23.1.3,38.4.2,38.3h13v-96.1l-7.1.3-7.2.3-15.1,25.6c-8.3,14.1-15.4,25.5-15.7,25.3s-7.5-11.8-15.9-25.9l-15.3-25.5h-13.7v48Z"/>
  <path class="st4" d="M2331.65,1105.56v8h-12.1l.3,4.7.3,4.8,5.7.3,5.7.3.3,24.7c.3,23.1.4,25,2.5,28.7,3.1,5.9,7.2,7.8,17.5,8.3l8.8.4v-10.2h-6.3c-10.3,0-10.1.5-10.5-28.1l-.3-23.9h17.1v-10h-17v-16h-12v8Z"/>
  <path class="st4" d="M1851.65,1114.46c-7.9,2.8-14.3,9.9-17.1,19.2s-2.4,25.5,1,34.1c2.6,6.8,8.6,13.2,14.9,16.1,6.6,3,22.6,3,29.2,0,7.7-3.6,14-12,14-18.8,0-2.4-.3-2.5-5.9-2.5h-5.8l-.7,3.9c-1.1,7.1-9.5,11.9-18.9,10.8-9.9-1.2-16-8.2-17.6-20.2l-.8-5.5h49.7v-6.4c0-19.6-10.4-31.3-28.5-32.3-6.2-.3-9.2.1-13.5,1.6ZM1869.75,1122.56c6.2,1.7,11.9,9.9,11.9,17v3h-37v-2.8c0-3.9,4.6-12.7,7.7-14.7,5.1-3.4,11.1-4.2,17.4-2.5Z"/>
  <path class="st4" d="M1995.25,1114.56c-9.4,3-15.5,10.6-15.6,19.2v3.8h5.4c5.3,0,5.5-.1,6.1-3.3,1.3-5.7,3.5-8.8,7.8-10.8,8-3.6,18.6-1.8,22.3,3.8.9,1.5,1.9,5.4,2.2,8.9l.5,6.2-8.9.7c-29.6,2.3-38.4,7.5-38.4,23,0,7,1.7,11.2,6.3,15.2,8.8,7.7,24.1,7,35.3-1.6l5.2-3.9.6,4.9.7,4.9h10.9v-25.5c0-30.5-.6-34.3-6.4-40.1-7.1-7.2-21.3-9.5-34-5.4ZM2023.65,1157.86c0,7.1-.1,7.5-3.6,11.1-4.8,4.9-10.7,7.7-17.3,8.3-6.3.5-9.3-.7-12.4-4.9-2.5-3.3-2.6-9.8-.3-13.4,3.2-4.8,13.9-8,27.9-8.3l5.7-.1v7.3Z"/>
  <path class="st4" d="M2218.25,1114.56c-9.4,3-15.5,10.6-15.6,19.2v3.8h5.4c5.3,0,5.5-.1,6.1-3.3,1.3-5.7,3.5-8.8,7.8-10.8,8-3.6,18.6-1.8,22.3,3.8.9,1.5,1.9,5.4,2.2,8.9l.5,6.2-8.9.7c-29.6,2.3-38.4,7.5-38.4,23,0,7,1.7,11.2,6.3,15.2,8.8,7.7,24.1,7,35.3-1.6l5.2-3.9.6,4.9.7,4.9h10.9v-25.5c0-30.5-.6-34.3-6.4-40.1-7.1-7.2-21.3-9.5-34-5.4ZM2246.65,1157.86c0,7.1-.1,7.5-3.6,11.1-4.8,4.9-10.7,7.7-17.3,8.3-6.3.5-9.3-.7-12.4-4.9-2.5-3.3-2.6-9.8-.3-13.4,3.2-4.8,13.9-8,27.9-8.3l5.7-.1v7.3Z"/>
  <path class="st4" d="M2304.25,1114.06c-2.1.7-5.8,3.3-8.2,5.6l-4.4,4.3v-10.4h-12v72h12v-50.3l2.5-3.3c3.1-4,11.7-8.4,16.7-8.4h3.8v-11h-3.2c-1.8.1-5.1.7-7.2,1.5Z"/>
  <path class="st4" d="M2438.65,1113.46c-4.1,1.3-8.8,4-12.5,7.2l-3.5,3.1v-10.2h-12v72h12v-50.9l3-3.5c4.2-4.8,12.3-8.6,17.9-8.6,5.9,0,9,1.6,11.5,6,2,3.3,2.1,5.4,2.4,30.2l.3,26.8h12.1l-.4-27.8c-.4-23.3-.7-28.4-2.2-32.4-2.1-5.6-7-10.3-12.3-11.7-4.3-1.2-12.6-1.3-16.3-.2Z"/>
  <path class="st4" d="M2541.65,1114.06c-6.6,2.1-11.5,6.7-15.2,14.3-3.1,6.2-3.3,7.4-3.7,18.9-.4,16.1,1.8,24.1,8.6,31.4,9.6,10.2,26.5,10.6,37.7.8l4.6-4.1v36.2h11v-98h-11v10.4l-3.7-3.6c-2.1-2-5.4-4.4-7.3-5.3-4.6-2.4-15.3-2.9-21-1ZM2563.15,1124.86c2.2,1.2,5.5,4.4,7.3,7.1l3.2,4.8v13.1c0,12.4-.1,13.3-2.6,16.8-4.4,6.3-9.7,9.3-17.3,9.7-8.3.5-12.4-1.9-16.1-9.3-2.1-4.2-2.6-6.7-2.8-15.5-.7-20,5.1-28.9,18.8-29,3.9,0,6.7.7,9.5,2.3Z"/>
  <path class="st4" d="M2704.65,1114.46c-7.9,2.8-14.3,9.9-17.1,19.2s-2.4,25.5,1,34.1c2.6,6.8,8.6,13.2,14.9,16.1,6.6,3,22.6,3,29.2,0,7.7-3.6,14-12,14-18.8,0-2.4-.3-2.5-5.9-2.5h-5.8l-.7,3.9c-1.1,7.1-9.5,11.9-18.9,10.8-9.9-1.2-16-8.2-17.6-20.2l-.8-5.5h49.7v-6.4c0-19.6-10.4-31.3-28.5-32.3-6.2-.3-9.2.1-13.5,1.6ZM2722.75,1122.56c6.2,1.7,11.9,9.9,11.9,17v3h-37v-2.8c0-3.9,4.6-12.7,7.7-14.7,5.1-3.4,11.1-4.2,17.4-2.5Z"/>
  <path class="st4" d="M2375.65,1149.56v36h12v-72h-12v36Z"/>
  <path class="st4" d="M2490.65,1149.56v36h12v-72h-12v36Z"/>
  <path class="st4" d="M2607.65,1140.36c0,30.4.7,34.8,6.5,40.6,8.3,8.4,25.9,7.2,37-2.5l3.5-3.1v2.8c0,6.6.8,7.4,6.6,7.4h5.4v-72h-12v51.8l-4.1,3.7c-2.3,2-5.6,4.3-7.5,5.1-4.7,2-15.3,1.8-18.3-.2-4.6-3.3-5.1-6.4-5.1-34.4v-26h-12v26.8Z"/>
  <path class="st0" d="M777.15,1.16c-48.9,2.1-91.5,7-133.5,15.4-193.6,38.7-365.7,146.7-483.5,303.5-42.2,56.1-77.2,118.9-103,184.5-24.9,63.4-42.1,134-48.9,201-3.1,30.6-3.9,47.7-3.9,82,0,36.1.9,53.3,4.4,85.5,33,303.4,243.4,561.3,537.9,659.5,61.1,20.3,126.7,33.5,195.5,39.2,21.2,1.7,102.5,1.7,123,0,110.5-9.4,207.1-36,300.9-82.9,188.2-94.1,330.6-256.8,396.8-453.3,57.1-169.5,53.7-356.3-9.5-523.1-49.6-130.7-134.1-246.5-244.2-334.8C1180.05,74.06,1025.15,14.06,857.55,2.56c-15.8-1.1-67.3-2-80.4-1.4ZM856.55,43.27c170.84,11.62,330.99,78.19,457.79,190.3,13.84,12.14,47.09,45.22,60.2,59.77,148.4,164.44,214.89,384.47,182.48,603.45-18.25,123.41-68.59,241.07-145.88,341.45-107.6,139.74-263.97,238.87-436.91,277.07-56.11,12.46-97.22,17.17-156.48,18.11-41.22.63-64.29-.31-97.54-3.98-137.91-14.97-268.17-66.15-378.08-148.64C132.49,1223.48,21.11,971.11,47.43,713.09c12.27-119.22,52.96-232.69,119.24-332.66,71.11-107.08,168.01-193.65,284.01-253.63,123.44-63.85,265.55-93.06,405.87-83.53Z"/>
</svg>